<?xml version="1.0" encoding="UTF-8"?>
<svg version="1.1" xmlns="http://www.w3.org/2000/svg" width="64" height="64">
<path d="M0 0 C21.12 0 42.24 0 64 0 C64 21.12 64 42.24 64 64 C42.88 64 21.76 64 0 64 C0 42.88 0 21.76 0 0 Z " fill="#FCF8FA" transform="translate(0,0)"/>
<path d="M0 0 C21.12 0 42.24 0 64 0 C64 14.52 64 29.04 64 44 C62.22287627 41.33431441 60.86647456 38.73294911 59.4375 35.875 C55.18791553 28.0685857 49.26986165 21.21663267 40.98828125 17.58203125 C37.49296349 16.55884393 34.62544698 16.62495376 31 17 C28.66015237 18.92446296 28.66015237 18.92446296 28.625 22.3125 C28 26 28 26 25.875 28.5 C23.61588253 30.95554399 23.61588253 30.95554399 24.1875 34.5625 C24.455625 35.696875 24.72375 36.83125 25 38 C25.185625 38.804375 25.37125 39.60875 25.5625 40.4375 C25.706875 40.953125 25.85125 41.46875 26 42 C22.51460083 41.35455571 19.97180943 39.89865603 17 38 C17.66 39.65 18.32 41.3 19 43 C17.68 43.66 16.36 44.32 15 45 C13.68412059 43.87895467 12.37239647 42.75303035 11.0625 41.625 C10.33160156 40.99851563 9.60070312 40.37203125 8.84765625 39.7265625 C7 38 7 38 6 36 C5.67 36.99 5.34 37.98 5 39 C4.34 39 3.68 39 3 39 C3 38.34 3 37.68 3 37 C2.34 37 1.68 37 1 37 C0.67 37.66 0.34 38.32 0 39 C0 26.13 0 13.26 0 0 Z " fill="#FDFBFB" transform="translate(0,0)"/>
<path d="M0 0 C7.47002612 -0.8300029 12.15963903 1.33720775 18 6 C23.46099667 11.8230517 27.7073803 17.47865327 27.50390625 25.671875 C26.70992357 29.34019807 24.85309187 31.32292439 22.0625 33.7421875 C19.25122372 35.45664008 17.23500147 35.80455043 13.98046875 35.49609375 C7.79388493 33.94639721 2.21221753 29.58092046 -1.875 24.8125 C-4.76643075 22.34627965 -7.28259022 22.2859546 -11 22 C-11.33 22.66 -11.66 23.32 -12 24 C-11.34 24.66 -10.68 25.32 -10 26 C-15.23589631 25.5777503 -17.61710401 24.04304886 -21.375 20.4375 C-22.24898437 19.61121094 -23.12296875 18.78492187 -24.0234375 17.93359375 C-24.67570312 17.29550781 -25.32796875 16.65742187 -26 16 C-25.67 15.01 -25.34 14.02 -25 13 C-24.443125 13.7425 -23.88625 14.485 -23.3125 15.25 C-21.0394533 17.95308256 -18.93758542 20.04160972 -16 22 C-15.01 21.67 -14.02 21.34 -13 21 C-13.66 19.35 -14.32 17.7 -15 16 C-10.75354935 16 -8.61475228 17.81750806 -5 20 C-5.515625 18.96875 -6.03125 17.9375 -6.5625 16.875 C-8.11648316 13.23676455 -8.22444872 10.8482674 -7 7 C-5.5625 5.125 -5.5625 5.125 -4 4 C-3.34 4 -2.68 4 -2 4 C-1.34 2.68 -0.68 1.36 0 0 Z " fill="#1C1C1C" transform="translate(31,22)"/>
<path d="M0 0 C0.08636719 0.71285156 0.17273438 1.42570312 0.26171875 2.16015625 C1.23380861 8.78642016 2.44434065 13.02055838 7 18 C9.47130918 19.15521502 9.47130918 19.15521502 12 20 C12.7425 20.845625 13.485 21.69125 14.25 22.5625 C17.97449844 25.86375998 21.16203117 25.88405739 26 26 C24.5 28.5 24.5 28.5 22 31 C15.76191071 31.92037383 12.04662443 30.61179983 7 27 C4.40721267 25.07048385 2.22796979 23.26596475 0.125 20.8125 C-2.76643075 18.34627965 -5.28259022 18.2859546 -9 18 C-9.33 18.66 -9.66 19.32 -10 20 C-9.34 20.66 -8.68 21.32 -8 22 C-13.23589631 21.5777503 -15.61710401 20.04304886 -19.375 16.4375 C-20.24898437 15.61121094 -21.12296875 14.78492188 -22.0234375 13.93359375 C-22.67570312 13.29550781 -23.32796875 12.65742187 -24 12 C-23.67 11.01 -23.34 10.02 -23 9 C-22.443125 9.7425 -21.88625 10.485 -21.3125 11.25 C-19.0394533 13.95308256 -16.93758542 16.04160972 -14 18 C-13.01 17.67 -12.02 17.34 -11 17 C-11.66 15.35 -12.32 13.7 -13 12 C-8.75354935 12 -6.61475228 13.81750806 -3 16 C-3.515625 14.96875 -4.03125 13.9375 -4.5625 12.875 C-6.11648316 9.23676455 -6.22444872 6.8482674 -5 3 C-2.7 0 -2.7 0 0 0 Z " fill="#848484" transform="translate(29,26)"/>
<path d="M0 0 C7.49206241 0.14690318 12.90321353 4.56149738 18.1875 9.5 C23.93973263 15.58525662 28.73303429 22.21454246 29.125 30.8125 C28.91819883 34.23560352 28.64476927 35.18499034 26.5 38 C25.51 38.680625 25.51 38.680625 24.5 39.375 C23.015 38.88 23.015 38.88 21.5 38.375 C22.49 37.715 23.48 37.055 24.5 36.375 C25.80334623 30.55540755 24.92495582 25.32808993 22 20.1875 C17.61181212 13.68801417 12.14214507 6.92238169 4.5 4.375 C1.01223251 4.0340904 -2.29212536 3.77106268 -5.5 5.375 C-4.39256198 0.47063164 -4.39256198 0.47063164 0 0 Z " fill="#E63B6E" transform="translate(34.5,15.625)"/>
<path d="M0 0 C2.8125 0.125 2.8125 0.125 6 1 C7.875 4.0625 7.875 4.0625 9 7 C9.763125 6.773125 10.52625 6.54625 11.3125 6.3125 C14 6 14 6 15.8125 7.1875 C17 9 17 9 17 13 C14.03 12.505 14.03 12.505 11 12 C11 12.66 11 13.32 11 14 C5.81216458 15.03756708 5.81216458 15.03756708 3 15 C0.5 13.3125 0.5 13.3125 -1 11 C-1 9.68 -1 8.36 -1 7 C0.32 7 1.64 7 3 7 C2.505 6.401875 2.01 5.80375 1.5 5.1875 C0 3 0 3 0 0 Z " fill="#424242" transform="translate(34,24)"/>
<path d="M0 0 C0.66 0.33 1.32 0.66 2 1 C3.20116938 6.64549608 3.10414253 12.24901786 3 18 C0.03 17.67 -2.94 17.34 -6 17 C-6.33 17.66 -6.66 18.32 -7 19 C-6.34 19.66 -5.68 20.32 -5 21 C-10.23589631 20.5777503 -12.61710401 19.04304886 -16.375 15.4375 C-17.24898437 14.61121094 -18.12296875 13.78492188 -19.0234375 12.93359375 C-19.67570312 12.29550781 -20.32796875 11.65742187 -21 11 C-20.67 10.01 -20.34 9.02 -20 8 C-19.443125 8.7425 -18.88625 9.485 -18.3125 10.25 C-16.0394533 12.95308256 -13.93758542 15.04160972 -11 17 C-10.01 16.67 -9.02 16.34 -8 16 C-8.66 14.35 -9.32 12.7 -10 11 C-5.75354935 11 -3.61475228 12.81750806 0 15 C-0.515625 13.96875 -1.03125 12.9375 -1.5625 11.875 C-3.12057133 8.25174923 -3.16175471 5.84272712 -2 2 C-1.34 1.34 -0.68 0.68 0 0 Z " fill="#656565" transform="translate(26,27)"/>
<path d="M0 0 C0.99 0 1.98 0 3 0 C4.216875 -0.103125 5.43375 -0.20625 6.6875 -0.3125 C13.64676346 -0.27433219 18.33067338 4.19387747 23.1875 8.75 C28.77768469 14.64891284 32.28052647 19.74938296 32.3125 28.0625 C32.23341493 29.70972907 32.13822348 31.35667644 32 33 C30.02 33.495 30.02 33.495 28 34 C28.33 33.01 28.66 32.02 29 31 C30.07053373 24.3735317 28.49468645 19.85179712 24.8515625 14.30078125 C21.03300614 9.55578189 15.18206903 4.6180793 8.96484375 3.69921875 C4.69336461 3.61547943 4.69336461 3.61547943 1 5.5 C0.67 5.995 0.34 6.49 0 7 C0 4.69 0 2.38 0 0 Z " fill="#E4DADD" transform="translate(28,19)"/>
<path d="M0 0 C3.57478396 1.44232064 5.11081448 3.16120903 7.1875 6.375 C7.95126953 7.53128906 7.95126953 7.53128906 8.73046875 8.7109375 C10.40169541 11.72428772 11.22543457 13.8406222 10.5625 17.25 C10.376875 17.8275 10.19125 18.405 10 19 C7.6875 19.25 7.6875 19.25 5 19 C1.88918982 16.11139055 1.46743848 13.11345859 1 9 C1.99 9 2.98 9 4 9 C3.36078035 6.52372901 3.36078035 6.52372901 2 4 C-0.52372901 2.63921965 -0.52372901 2.63921965 -3 2 C-2.01 1.34 -1.02 0.68 0 0 Z " fill="#2F2F2F" transform="translate(47,28)"/>
<path d="M0 0 C2.8751945 1.28888029 5.0071564 2.53266983 7 5 C8.02042676 7.87574815 8 9.84866261 8 13 C3.63204596 13 3.25341007 12.77237852 0.25 10 C-0.36359375 9.443125 -0.9771875 8.88625 -1.609375 8.3125 C-2.06828125 7.879375 -2.5271875 7.44625 -3 7 C-2.25 2.25 -2.25 2.25 0 0 Z " fill="#707070" transform="translate(10,31)"/>
<path d="M0 0 C1.98 0.66 3.96 1.32 6 2 C5.01 2.495 5.01 2.495 4 3 C5.13016255 6.52692672 5.13016255 6.52692672 7 10 C9.57732914 11.05167527 9.57732914 11.05167527 12 11 C12.33 9.68 12.66 8.36 13 7 C13.125 10.375 13.125 10.375 13 14 C11 16 11 16 8.94140625 16.08203125 C8.15636719 15.99308594 7.37132812 15.90414062 6.5625 15.8125 C5.78003906 15.73644531 4.99757813 15.66039062 4.19140625 15.58203125 C1.66065067 14.90986979 0.66080931 13.98122268 -1 12 C0.32 11.67 1.64 11.34 3 11 C1.87548273 8.0280615 0.77706209 5.66559313 -1 3 C-0.34 3 0.32 3 1 3 C0.67 2.01 0.34 1.02 0 0 Z " fill="#0E0E0E" transform="translate(45,36)"/>
<path d="M0 0 C2.86752095 1.39501019 5.55138957 2.9491334 8 5 C8 5.66 8 6.32 8 7 C7.01 7 6.02 7 5 7 C4.67 7.99 4.34 8.98 4 10 C3.62875 9.05125 3.2575 8.1025 2.875 7.125 C1.26004095 3.74446192 1.26004095 3.74446192 -2.1875 2.625 C-3.115625 2.41875 -4.04375 2.2125 -5 2 C-4.505 2.78375 -4.01 3.5675 -3.5 4.375 C-2 7 -2 7 -2 9 C-2.61875 9.12375 -3.2375 9.2475 -3.875 9.375 C-6.19120832 9.87197356 -6.19120832 9.87197356 -8 12 C-9 11 -9 11 -9.25 7.125 C-9.20377533 4.54566338 -9.15273457 3.27152813 -7.875 1 C-4.9548839 -0.55739525 -3.29107864 -0.49676659 0 0 Z " fill="#080808" transform="translate(39,22)"/>
<path d="M0 0 C0.825 0.556875 1.65 1.11375 2.5 1.6875 C5.7460628 3.86966183 9.08980976 5.86928889 12.4609375 7.8515625 C13.22277344 8.42003906 13.22277344 8.42003906 14 9 C14 9.66 14 10.32 14 11 C16.97 11 19.94 11 23 11 C22.01 12.485 22.01 12.485 21 14 C15.66956124 14.63242494 12.06897997 14.1858254 7.53515625 11.2734375 C3.96302695 8.31029717 1.91589418 4.15110405 0 0 Z " fill="#2C2C2C" transform="translate(30,43)"/>
<path d="M0 0 C0.66 0.33 1.32 0.66 2 1 C3.0283474 6.03890228 3.08970351 10.88689982 3 16 C2.01 16 1.02 16 0 16 C-3.68625277 7.44789357 -3.68625277 7.44789357 -2 2 C-1.34 1.34 -0.68 0.68 0 0 Z " fill="#101010" transform="translate(26,27)"/>
<path d="M0 0 C0.4125 0.37511719 0.825 0.75023437 1.25 1.13671875 C9.03383791 8.2238767 9.03383791 8.2238767 18.75 11.375 C21.27503149 11.08365021 23.58453741 10.77294803 26 10 C23.29080503 12.83234019 21.8751489 13.89498213 17.875 14.375 C10.38568623 13.6502277 5.70429537 9.15595003 1.03125 3.55078125 C0 2 0 2 0 0 Z " fill="#E64574" transform="translate(2,38)"/>
<path d="M0 0 C3.74490345 0.95799856 5.6843407 1.65021537 8.3125 4.5625 C11.98444719 7.89287071 15.18516214 7.88461173 20 8 C19.67 8.66 19.34 9.32 19 10 C15.7 10 12.4 10 9 10 C9 9.34 9 8.68 9 8 C8.2575 7.731875 7.515 7.46375 6.75 7.1875 C4.09090121 6.0392528 2.12218515 4.96498625 0 3 C0 2.01 0 1.02 0 0 Z " fill="#A7A7A7" transform="translate(35,44)"/>
<path d="M0 0 C0.66 0 1.32 0 2 0 C4.61423592 4.51739966 4.72944121 8.89391153 4 14 C2 16.625 2 16.625 0 18 C-0.99 17.67 -1.98 17.34 -3 17 C-2.01 16.34 -1.02 15.68 0 15 C0.22137393 12.37302936 0.28162025 9.99106036 0.1875 7.375 C0.17396484 6.66859375 0.16042969 5.9621875 0.14648438 5.234375 C0.1111104 3.48925872 0.05730221 1.74453392 0 0 Z " fill="#E6376A" transform="translate(59,37)"/>
<path d="M0 0 C3.11954738 0.33724836 4.6209965 0.6209965 6.875 2.875 C7.24625 3.57625 7.6175 4.2775 8 5 C7.67 5.99 7.34 6.98 7 8 C3.76912579 7.44295272 1.97638863 6.66812465 0 4 C0 2.68 0 1.36 0 0 Z " fill="#E5E5E5" transform="translate(41,40)"/>
<path d="M0 0 C4.97874064 0.47416578 8.06718758 1.9099331 12 5 C12 5.66 12 6.32 12 7 C11.01 7 10.02 7 9 7 C8.67 7.99 8.34 8.98 8 10 C7.4121875 8.576875 7.4121875 8.576875 6.8125 7.125 C4.80206144 3.65872662 3.77300358 3.0197307 0 2 C0 1.34 0 0.68 0 0 Z " fill="#131313" transform="translate(35,22)"/>
<path d="M0 0 C0.66 0.33 1.32 0.66 2 1 C1.34 1.66 0.68 2.32 0 3 C-0.91797728 9.54058812 0.63522964 12.75580857 4.4921875 18.01953125 C4.98976563 18.67308594 5.48734375 19.32664062 6 20 C6.66 20.99 7.32 21.98 8 23 C5.54447615 22.61256127 4.28924068 22.30405354 2.55078125 20.4765625 C2.14214844 19.86554687 1.73351563 19.25453125 1.3125 18.625 C0.89613281 18.01914062 0.47976562 17.41328125 0.05078125 16.7890625 C-1.88581735 13.49180541 -2.15994739 10.67914505 -2.1875 6.9375 C-2.20167969 6.05964844 -2.21585938 5.18179687 -2.23046875 4.27734375 C-2 2 -2 2 0 0 Z " fill="#414141" transform="translate(31,22)"/>
<path d="M0 0 C3.23087421 0.55704728 5.02361137 1.33187535 7 4 C7 5.32 7 6.64 7 8 C4.625 7.6875 4.625 7.6875 2 7 C0 4 0 4 0 0 Z " fill="#EAEAEA" transform="translate(33,31)"/>
<path d="M0 0 C0.44730469 0.39832031 0.89460937 0.79664063 1.35546875 1.20703125 C7.30460958 6.79753112 7.30460958 6.79753112 14.8125 9.1875 C15.534375 9.125625 16.25625 9.06375 17 9 C17 9.66 17 10.32 17 11 C13.80473932 12.02500298 12.4828977 12.24291662 9.4296875 10.70703125 C8.58664062 10.08183594 7.74359375 9.45664062 6.875 8.8125 C6.02679687 8.20019531 5.17859375 7.58789062 4.3046875 6.95703125 C2.13847134 5.11758329 0.58928759 3.34238139 -1 1 C-0.67 0.67 -0.34 0.34 0 0 Z " fill="#E4D0D6" transform="translate(5,38)"/>
<path d="M0 0 C2.875 0.3125 2.875 0.3125 6 1 C8 4 8 4 8 7 C5.25851328 6.62952882 3.41406801 6.31412056 1.1875 4.625 C0 3 0 3 0 0 Z " fill="#EBEBEB" transform="translate(34,24)"/>
<path d="M0 0 C4.75 0.75 4.75 0.75 7 3 C7 4.32 7 5.64 7 7 C4.625 6.6875 4.625 6.6875 2 6 C0 3 0 3 0 0 Z " fill="#F2F2F2" transform="translate(49,40)"/>
<path d="M0 0 C4.75 0.75 4.75 0.75 7 3 C7 4.32 7 5.64 7 7 C4.625 6.6875 4.625 6.6875 2 6 C0 3 0 3 0 0 Z " fill="#F3F3F3" transform="translate(44,30)"/>
<path d="M0 0 C0.99 0.33 1.98 0.66 3 1 C3.6875 3.0625 3.6875 3.0625 4 5 C2.68 5.99 1.36 6.98 0 8 C-1.5 6.6875 -1.5 6.6875 -3 5 C-3 4.01 -3 3.02 -3 2 C-2.01 1.34 -1.02 0.68 0 0 Z " fill="#F2F2F2" transform="translate(10,33)"/>
<path d="M0 0 C1.32 0.99 2.64 1.98 4 3 C3.34 4.32 2.68 5.64 2 7 C-0.475 6.01 -0.475 6.01 -3 5 C-1.125 1.125 -1.125 1.125 0 0 Z " fill="#F7F7F7" transform="translate(15,38)"/>
<path d="M0 0 C0.33 0 0.66 0 1 0 C1 1.65 1 3.3 1 5 C1.66 5 2.32 5 3 5 C2.3125 7.4375 2.3125 7.4375 1 10 C-1.625 10.8125 -1.625 10.8125 -4 11 C-3.525625 10.67 -3.05125 10.34 -2.5625 10 C-0.14208385 6.90186733 -0.31801083 3.87973208 0 0 Z " fill="#EA648C" transform="translate(60,44)"/>
<path d="M0 0 C2.05078125 0.03255208 4.1015625 0.06510417 6.15234375 0.09765625 C5.82234375 0.75765625 5.49234375 1.41765625 5.15234375 2.09765625 C2.83386501 2.81427695 0.49914672 3.48007652 -1.84765625 4.09765625 C-2.83765625 4.59265625 -2.83765625 4.59265625 -3.84765625 5.09765625 C-2.72914438 0.14424653 -2.72914438 0.14424653 0 0 Z " fill="#E53266" transform="translate(32.84765625,15.90234375)"/>
<path d="M0 0 C3.63 0.33 7.26 0.66 11 1 C10.67 1.66 10.34 2.32 10 3 C6.7 3 3.4 3 0 3 C0 2.01 0 1.02 0 0 Z " fill="#737474" transform="translate(44,51)"/>
<path d="M0 0 C3.38023517 0 5.83468937 0.87455622 9 2 C9 2.33 9 2.66 9 3 C7.329375 3.433125 7.329375 3.433125 5.625 3.875 C1.99708908 4.69241329 1.99708908 4.69241329 0 7 C0 4.69 0 2.38 0 0 Z " fill="#DFC0CA" transform="translate(28,19)"/>
<path d="M0 0 C2 2 2 2 2.1953125 3.9453125 C2.13020833 5.96354167 2.06510417 7.98177083 2 10 C1.34 9.67 0.68 9.34 0 9 C-1.28571429 2.57142857 -1.28571429 2.57142857 0 0 Z " fill="#6C6C6C" transform="translate(24,29)"/>
<path d="M0 0 C1.98 0.66 3.96 1.32 6 2 C5.01 3.32 4.02 4.64 3 6 C1.68 5.34 0.36 4.68 -1 4 C-0.34 3.67 0.32 3.34 1 3 C0.67 2.01 0.34 1.02 0 0 Z " fill="#060606" transform="translate(45,36)"/>
<path d="M0 0 C5.75 -0.125 5.75 -0.125 8 1 C8 1.66 8 2.32 8 3 C5.03 2.67 2.06 2.34 -1 2 C-0.67 1.34 -0.34 0.68 0 0 Z " fill="#FAF3F6" transform="translate(33,19)"/>
<path d="M0 0 C2.31 1.98 4.62 3.96 7 6 C6.34 6.66 5.68 7.32 5 8 C0 2.25 0 2.25 0 0 Z " fill="#E64F7C" transform="translate(2,38)"/>
</svg>
